<svg xmlns="http://www.w3.org/2000/svg" xmlns:xlink="http://www.w3.org/1999/xlink" width="531" height="451" viewBox="0 0 531 451">
    <defs>
        <path id="kgcbnraeba" d="M0.074 0.021L93.968 0.021 93.968 84.644 0.074 84.644z"/>
        <path id="vy9uen56pc" d="M0.559 0.813L48.811 0.813 48.811 180.133 0.559 180.133z"/>
    </defs>
    <g fill="none" fill-rule="evenodd">
        <g>
            <g>
                <g>
                    <path fill="#E4E4DE" d="M219.543 127.854c-2.862 3.662-8.17 4.323-11.85 1.477-3.684-2.847-4.347-8.123-1.485-11.783 2.862-3.662 8.17-4.323 11.851-1.477 3.682 2.847 4.347 8.123 1.484 11.783zm-35.056 9.983c12.838 9.923 31.334 7.618 41.314-5.145s7.663-31.155-5.174-41.078c-10.98-8.486-26.096-8.022-36.486.275l-.01-.006-6.459-4.993-9.59 2.973 1.098-9.537-8.092-6.255-9.59 2.973 1.097-9.537-6.956-5.377-5.844 1.812.668-5.812-4.047-3.13-9.183.901L126 69.931l48.119 37.192c-2.977 11.035.728 23.262 10.368 30.714zM217.485 6.824c1.943 1.576 2.232 4.417.644 6.345-1.587 1.928-4.45 2.215-6.392.638-1.942-1.575-2.231-4.416-.644-6.345 1.588-1.927 4.45-2.214 6.392-.638zm4.942 18.84c5.533-6.722 4.529-16.625-2.243-22.117-6.774-5.493-16.75-4.496-22.285 2.227-4.733 5.75-4.678 13.825-.326 19.478l-.004.005-2.784 3.382 1.482 5.159-5.143-.711-3.489 4.238 1.483 5.159-5.143-.712-2.999 3.644.903 3.143-3.135-.433L177 50.247l.368 4.911 7.571.842 20.743-25.2c5.928 1.733 12.59-.087 16.745-5.136z" transform="translate(-239 -287) translate(154 162) translate(85 125)"/>
                    <path fill="#132529" d="M482 436.5c0 .144-106.788.26-238.489.26C111.766 436.76 5 436.644 5 436.5c0-.144 106.766-.26 238.511-.26 131.701 0 238.489.116 238.489.26M382 391.004L412.941 435.742 424 436 403.721 390 382 391.004M57.024 394L41 436 49.011 436 77 394.184 57.024 394" transform="translate(-239 -287) translate(154 162) translate(85 125)"/>
                    <path fill="#E0565F" d="M50.01 240.475l1.189 54.603c.168 7.722 6.392 13.944 14.12 14.115l305.913 6.803c8.102.182 14.768-6.332 14.768-14.428v-65.782c0-19.42-14.333-35.87-33.59-38.516-56-7.692-171.505-19.523-264.848-2.712-22.12 3.985-38.04 23.467-37.551 45.917" transform="translate(-239 -287) translate(154 162) translate(85 125)"/>
                    <path fill="#E0565F" d="M49.375 259.235s-25.21-11.68-30.365 0c-5.155 11.683.573 26.025 6.303 34.056C31.041 301.325 30.949 400 30.949 400l382.282-4.09 4.53-94.925s18.333-22.608 17.187-32.362c-1.144-9.752-16.614-23.938-34.374-9.388-17.76 14.552-22.343 44.957-22.343 44.957l-304.793 2.295s1.009-42.73-24.063-47.252" transform="translate(-239 -287) translate(154 162) translate(85 125)"/>
                    <path fill="#132529" d="M374 323.501c0 .143-67.834.259-151.493.259-83.686 0-151.507-.116-151.507-.259 0-.144 67.82-.261 151.507-.261 83.659 0 151.493.117 151.493.261" transform="translate(-239 -287) translate(154 162) translate(85 125)"/>
                    <path fill="#132529" d="M71.597 365c-.012 0-.024-.102-.036-.299l-.039-.877c-.03-.772-.055-1.91-.066-3.376-.008-2.988-.02-7.213-.032-12.41-.015-10.48.074-24.959-.41-40.933-.297-7.974-.588-15.617-1.774-22.405l-.666-2.43c-.317-.777-.623-1.551-.955-2.3-.666-1.495-1.346-2.935-2.088-4.283-1.462-2.709-3.06-5.105-4.72-7.135-1.655-2.032-3.374-3.686-5.005-4.992-1.653-1.278-3.203-2.216-4.529-2.866-2.665-1.285-4.306-1.6-4.277-1.691.004-.011.105.009.3.055.233.06.517.133.866.225.765.181 1.861.575 3.222 1.186 1.359.62 2.949 1.539 4.645 2.808 1.673 1.294 3.44 2.948 5.14 4.988 1.702 2.036 3.34 4.446 4.836 7.17.761 1.356 1.458 2.804 2.139 4.308.341.755.654 1.532.978 2.318l.708 2.521c1.234 6.875 1.537 14.51 1.836 22.504.485 15.993.321 30.474.218 40.954l-.178 12.409-.055 3.374-.027.877c-.009.198-.02.3-.031.3M46.366 281.652c-.013-.025.324-.24 1.024-.32.686-.079 1.766.06 2.818.791.518.368 1.029.88 1.376 1.566.343.685.506 1.539.365 2.393-.247 1.684-1.573 3.457-3.59 3.857-2.027.344-3.887-.82-4.748-2.277-.455-.733-.634-1.575-.609-2.336.033-.764.262-1.447.558-2.006.608-1.129 1.478-1.761 2.107-2.043.639-.29 1.033-.296 1.036-.264.015.055-.352.15-.917.488-.558.333-1.314.977-1.815 2.029-.505 1.022-.68 2.538.15 3.815.772 1.257 2.434 2.247 4.12 1.95 1.678-.32 2.88-1.857 3.116-3.309.289-1.5-.51-2.812-1.421-3.489-.917-.707-1.89-.91-2.535-.908-.656-.004-1.016.12-1.035.063" transform="translate(-239 -287) translate(154 162) translate(85 125)"/>
                    <path fill="#132529" d="M47.992 305.997c-.055.051-.968-.633-1.965-2.092-.997-1.438-1.99-3.724-2.026-6.363-.035-2.642.899-4.948 1.858-6.408.96-1.479 1.852-2.184 1.909-2.131.094.069-.643.873-1.451 2.352-.81 1.467-1.614 3.677-1.581 6.178.034 2.502.895 4.694 1.743 6.141.846 1.463 1.606 2.25 1.513 2.323M43.26 269.001c.106.044-.185.728-.41 1.867-.229 1.134-.318 2.746.069 4.468.396 1.719 1.18 3.16 1.886 4.108.702.955 1.264 1.47 1.188 1.55-.048.057-.74-.342-1.581-1.273-.841-.92-1.756-2.423-2.175-4.25-.412-1.828-.234-3.547.133-4.708.363-1.168.822-1.794.89-1.762M36.012 283.009c.132-.113 1.214.908 2.86 1.697 1.636.81 3.151 1.056 3.128 1.221 0 .146-1.65.147-3.408-.719-1.765-.851-2.71-2.118-2.58-2.2M414 364.5c0 .144-86.193.26-192.49.26-106.337 0-192.51-.115-192.51-.26 0-.144 86.173-.26 192.51-.26 106.297 0 192.49.115 192.49.26" transform="translate(-239 -287) translate(154 162) translate(85 125)"/>
                    <path fill="#132529" d="M372.5 305c.144 0 .26 13.433.26 29.998 0 16.571-.116 30.002-.26 30.002-.144 0-.26-13.43-.26-30.002 0-16.565.116-29.998.26-29.998M245 200.022s-.2.025-.592.045c-.419.016-.996.035-1.738.064l-6.683.185c-5.834.135-14.227.328-24.584.565l-81.111 1.618c-7.92.19-15.663.166-23.101.653-7.426.488-14.603 1.519-21.037 3.81-6.456 2.197-12.018 5.865-15.995 10.4-1.978 2.269-3.646 4.682-4.897 7.186-1.34 2.462-2.23 5.009-3.043 7.438-1.475 4.92-2.139 9.545-2.517 13.605-.38 4.068-.425 7.591-.443 10.467-.013 2.879.05 5.114.083 6.63l.037 1.724c.005.388-.009.588-.009.588s-.03-.197-.057-.585l-.102-1.724c-.076-1.513-.179-3.75-.205-6.631-.02-2.88-.011-6.414.336-10.498.347-4.08.98-8.735 2.439-13.708.804-2.455 1.692-5.034 3.036-7.533 1.255-2.54 2.936-4.997 4.938-7.31 4.02-4.623 9.672-8.37 16.197-10.606 6.508-2.334 13.74-3.38 21.197-3.882 7.474-.497 15.213-.476 23.13-.667 31.663-.557 60.33-1.063 81.115-1.43l24.588-.36 6.686-.065 1.739-.001c.393.004.593.022.593.022M146.711 242.393c.022.055-.401.207-1.027.68-.619.468-1.426 1.336-1.88 2.658-.463 1.29-.466 3.122.673 4.56 1.07 1.422 3.133 2.424 5.146 1.957 2.005-.5 3.4-2.337 3.721-4.094.376-1.803-.443-3.438-1.43-4.377-.995-.973-2.104-1.38-2.864-1.514-.77-.138-1.216-.08-1.22-.14-.008-.026.434-.173 1.254-.105.807.063 2.018.422 3.134 1.429.548.503 1.072 1.165 1.411 1.996.333.828.475 1.823.288 2.818-.332 1.966-1.841 4.022-4.148 4.609-2.32.528-4.582-.62-5.754-2.223-.611-.801-.928-1.755-1-2.646-.067-.895.104-1.725.37-2.425.546-1.408 1.467-2.28 2.16-2.706.702-.434 1.161-.504 1.166-.477M141.411 275c-.076.017-.55-1.337-.984-3.606-.413-2.252-.788-5.529.203-9 1.013-3.48 3.444-6.072 5.588-7.245 1.072-.601 2.035-.912 2.714-1.035.678-.128 1.062-.13 1.067-.094.038.13-1.528.252-3.523 1.507-1.983 1.215-4.229 3.722-5.194 7.036-.953 3.324-.673 6.52-.383 8.764.309 2.26.616 3.65.512 3.673" transform="translate(-239 -287) translate(154 162) translate(85 125)"/>
                    <path fill="#132529" d="M146.776 224.003c.09.081-.895.917-1.836 2.674-.943 1.717-1.728 4.496-1.05 7.427.698 2.928 2.644 5.1 4.26 6.25 1.632 1.184 2.893 1.523 2.849 1.635-.011.035-.333-.01-.89-.19-.56-.174-1.342-.514-2.224-1.08-1.75-1.102-3.883-3.349-4.626-6.475-.725-3.129.193-6.054 1.279-7.784.541-.883 1.096-1.52 1.52-1.912.424-.396.692-.574.718-.545M145 248.13c.011.224-3.123.317-6.723 1.685-3.614 1.329-6.162 3.36-6.273 3.173-.113-.121 2.335-2.478 6.067-3.854 3.72-1.409 6.952-1.176 6.929-1.004" transform="translate(-239 -287) translate(154 162) translate(85 125)"/>
                    <path fill="#A93B44" d="M152.385 398c-5.37 0-11.433-.686-14.126-5.21-2.04-3.421-1.264-7.75-.426-11.643 1.126-5.22 2.25-10.441 3.375-15.663 15.203.011 31.48.02 48.51.025-1.078 2.783-2.049 5.622-3.067 8.396-3.035 8.271-7.232 16.9-15.055 20.977-5.52 2.876-12.01 3.025-18.237 3.112-.322.004-.647.006-.974.006m77.44-31.399c-1.25 0-2.525-.161-3.737-.385-1.073-.197-2.139-.431-3.194-.702l11.59-.001c-1.382.804-3 1.088-4.658 1.088m-88.491-1.704c1.974-9.17 3.95-18.342 5.926-27.512-1.442.104-2.887.155-4.332.155-13.593 0-27.17-4.573-37.929-12.873l1.052-.927c26.851.07 66.971.114 112.05.117l15.608 24.166c1.704 2.638 3.44 5.354 4.072 8.429.617 2.998-.046 6.456-2.378 8.417l-13.698-.001h-1.09c-8.48-2.634-16.227-7.623-22.067-14.305-3.99 3.977-6.5 9.025-8.583 14.31-17.073.005-33.388.012-48.631.024m-34.814-41.569l1.022-.9c2.017-.497 4.035-.98 6.058-1.452 2.127.821 4.436 1.273 6.71 1.273 3.287 0 6.498-.947 8.967-3.096.666-.58 1.254-1.22 1.783-1.905 21.32-4.143 42.92-6.86 64.603-8.119 1.175-.068 2.365-.129 3.551-.129 2.408 0 4.794.252 6.982 1.206 4.162 1.818 6.856 5.833 9.318 9.645l2.171 3.36c-44.644.003-84.402.048-111.165.117" transform="translate(-239 -287) translate(154 162) translate(85 125)"/>
                    <path fill="#051317" d="M218 323.76c-45.06-.002-85.16-.038-112-.094l.469-.332c26.75-.056 66.49-.092 111.115-.094l.416.52M222.516 365.521c-.763-.159-1.521-.332-2.273-.521h1.088l13.669.001-.18.117c-.237.149-.483.283-.737.402l-11.567.001m-33.108-.004c-16.993-.004-33.236-.011-48.408-.02l.127-.473c15.21-.01 31.492-.016 48.53-.02l-.249.513" transform="translate(-239 -287) translate(154 162) translate(85 125)"/>
                    <path fill="#A2A5A2" d="M172 186c8.078-1.276 16.224-2.19 24.346-3l5.654 1.25c-.165.464-.342.923-.527 1.372-1.46-.007-2.922-.01-4.386-.01-8.318 0-16.7.123-25.087.388" transform="translate(-239 -287) translate(154 162) translate(85 125)"/>
                    <path fill="#A93B44" d="M96.907 306c-6.52-7.989-12.468-16.616-15.553-26.447-5.779-18.418-.482-39.24 11.113-54.63 7.013-9.305 16.079-16.776 26.17-22.603 3.655-.072 7.363-.115 11.11-.206l56.911-1.151c-10.626 7.64-23.478 13.711-29.458 25.196-2.978 5.72-3.866 12.023-3.984 18.537-.31-.52-.691-.957-1.084-1.316-1.14-1.024-2.375-1.388-3.2-1.452-.154-.013-.295-.018-.421-.018-.567 0-.866.104-.86.125.005.06.461.002 1.246.142.777.137 1.909.55 2.924 1.538.589.557 1.119 1.356 1.383 2.289-.003.807.005 1.618.02 2.43-.415 1.7-1.796 3.406-3.74 3.888-.349.08-.698.118-1.044.118-1.696 0-3.304-.906-4.212-2.106-.505-.635-.79-1.346-.913-2.054.846-.127 1.355-.19 1.35-.272.009-.055-.395-.117-1.086-.117-.099 0-.204.001-.314.004-.072-.79.045-1.557.276-2.194.463-1.344 1.288-2.225 1.92-2.7.639-.481 1.07-.636 1.049-.692 0-.004-.008-.005-.022-.005-.097 0-.537.1-1.17.49-.707.432-1.647 1.319-2.206 2.75-.261.686-.434 1.498-.384 2.374-1.278.077-3.066.34-4.985.997-3.728 1.244-6.174 3.376-6.06 3.486.004.007.013.01.026.01.306 0 2.785-1.73 6.24-2.88 1.855-.638 3.587-.97 4.828-1.168.121.8.436 1.624.98 2.332.995 1.357 2.762 2.391 4.692 2.391.39 0 .785-.042 1.183-.132 1.662-.42 2.919-1.584 3.634-2.935.39 12.681 2.314 25.78-3.58 36.675-3.625 6.703-9.85 11.706-13.392 18.455-.096.183-.192.369-.285.556L96.907 306m52.46-52.858c-.16 0-.465.031-.892.117-.649.126-1.57.444-2.593 1.059-2.049 1.199-4.371 3.848-5.34 7.405-.946 3.548-.588 6.897-.193 9.198.413 2.306.86 3.686.939 3.686h.001c.1-.024-.194-1.445-.489-3.754-.277-2.294-.545-5.56.365-8.958.923-3.387 3.068-5.95 4.963-7.19 1.906-1.284 3.402-1.41 3.366-1.542 0-.012-.044-.02-.127-.02m-3.576-30.09c-.054 0-.313.185-.705.563-.42.404-.972 1.059-1.51 1.966-1.078 1.779-1.99 4.786-1.27 8.001.738 3.214 2.856 5.524 4.595 6.657.876.58 1.653.93 2.208 1.11.441.146.733.206.84.206.027 0 .042-.004.044-.011.044-.115-1.208-.464-2.83-1.68-1.603-1.182-3.537-3.416-4.23-6.425-.673-3.013.106-5.87 1.043-7.635.935-1.806 1.913-2.665 1.824-2.748-.001-.003-.004-.004-.009-.004m-25.977-21.402c6.256-3.508 12.885-6.395 19.645-8.707 10.579-3.617 21.515-5.927 32.577-7.583 8.243-.246 16.48-.361 24.654-.361 1.438 0 2.876.004 4.31.01-2.801 6.433-7.841 11.19-13.615 15.424l-57.65 1.031c-3.341.082-6.65.125-9.921.186M113.266 321c-.406-.163-.805-.34-1.196-.529-5.372-2.613-9.508-7.299-13.332-12.004-.583-.716-1.162-1.437-1.738-2.163l39-.304c-1.803 3.728-2.988 7.924-5.388 11.152-5.804 1.172-11.587 2.456-17.346 3.848" transform="translate(-239 -287) translate(154 162) translate(85 125)"/>
                    <path fill="#051317" d="M119 203c.392-.24.786-.476 1.18-.71 3.284-.065 6.605-.11 9.959-.197L188 201c-.242.188-.485.374-.73.56l-57.119 1.222c-3.761.096-7.483.141-11.151.218M148.976 253c-2.013 0-3.856-1.018-4.895-2.353-.567-.697-.895-1.51-1.021-2.296l.562-.082c.127.697.425 1.398.952 2.022.947 1.182 2.623 2.073 4.393 2.073.36 0 .725-.038 1.088-.116 2.028-.475 3.468-2.154 3.902-3.827.01.518.025 1.04.043 1.56-.745 1.33-2.057 2.476-3.79 2.889-.415.088-.827.13-1.234.13m-5.967-5.087c-.053-.862.128-1.66.4-2.337.583-1.408 1.564-2.28 2.301-2.706.66-.383 1.12-.482 1.221-.482.014 0 .022 0 .022.005.023.055-.427.207-1.094.68-.659.468-1.52 1.335-2.002 2.658-.24.627-.363 1.383-.288 2.16-.174.003-.36.01-.56.022m10.926-1.884c-.275-.918-.828-1.704-1.441-2.253-1.06-.972-2.24-1.378-3.05-1.513-.82-.138-1.295-.08-1.3-.14-.006-.021.305-.123.897-.123.131 0 .279.005.439.017.86.064 2.15.422 3.338 1.43.41.353.806.783 1.13 1.295-.007.428-.011.856-.013 1.287M141.41 275c-.082 0-.551-1.35-.983-3.606-.413-2.251-.788-5.528.203-8.999 1.013-3.48 3.444-6.072 5.588-7.245 1.072-.601 2.035-.912 2.714-1.035.448-.085.767-.115.934-.115.087 0 .132.009.133.02.038.13-1.528.253-3.523 1.508-1.983 1.215-4.229 3.722-5.194 7.035-.953 3.325-.673 6.52-.383 8.764.309 2.26.616 3.65.512 3.673h-.001M150.954 242c-.107 0-.402-.058-.845-.2-.56-.175-1.342-.515-2.224-1.08-1.75-1.103-3.883-3.35-4.626-6.476-.725-3.128.193-6.053 1.279-7.784.541-.882 1.096-1.519 1.52-1.912.394-.369.655-.548.71-.548.005 0 .007.001.008.004.09.08-.895.916-1.836 2.673-.943 1.718-1.728 4.497-1.05 7.428.698 2.927 2.644 5.1 4.26 6.25 1.632 1.183 2.893 1.523 2.849 1.634-.003.007-.018.011-.045.011" transform="translate(-239 -287) translate(154 162) translate(85 125)"/>
                    <path fill="#051317" d="M132.031 253c-.014 0-.022-.004-.027-.012-.113-.122 2.335-2.479 6.067-3.855 1.92-.728 3.71-1.017 4.99-1.103.19-.013.37-.022.537-.026.11-.003.215-.004.315-.004.691 0 1.096.069 1.087.13.005.09-.505.16-1.351.3-.168.028-.348.058-.54.092-1.242.22-2.975.586-4.832 1.292-3.46 1.271-5.94 3.186-6.246 3.186" transform="translate(-239 -287) translate(154 162) translate(85 125)"/>
                    <path fill="#69222B" d="M120.533 322c-2.213 0-4.462-.452-6.533-1.273 5.644-1.349 11.312-2.592 17-3.727-.515.685-1.087 1.325-1.736 1.904-2.403 2.15-5.53 3.096-8.731 3.096" transform="translate(-239 -287) translate(154 162) translate(85 125)"/>
                    <path fill="#132529" d="M114 133.708c2.88-4.266 6.637-8.041 11.246-10.366 4.608-2.325 10.12-3.097 15.031-1.501 4.913 1.594 9.061 5.73 10.063 10.773.793 3.994-.277 8.46 1.798 11.97 2.39 4.04 8.145 5.32 10.165 9.553 1.216 2.551.73 5.65-.606 8.14-1.335 2.49-3.422 4.49-5.508 6.404 1.262.89 2.547 1.813 3.436 3.072.889 1.26 1.326 2.944.73 4.363-.63 1.501-2.211 2.355-3.717 2.991-6.947 2.927-14.811 3.662-22.186 2.072-1.981-.426-4.247-.963-5.878.232" transform="translate(-239 -287) translate(154 162) translate(85 125)"/>
                    <path fill="#B67E6D" d="M163.423 148.246l-4.023 12.206 27.199 15.455-27.343.887L161.301 199l52.664-12.948s3.16-21.512-50.542-37.806l-3.778-.89c-1.37-.322-2.492-1.298-3.006-2.61-.404-1.035-1.17-1.887-2.153-2.401L150 140l.031 3.564 2.466 2.904-.394 6.89c-.21 3.047 1.812 5.797 4.78 6.499l2.517.595" transform="translate(-239 -287) translate(154 162) translate(85 125)"/>
                    <path fill="#FAF9F6" d="M103.888 192.193c-1.074 0-11.11 2.429-16.844 9.716C81.31 209.196 73 236.514 73 236.514l21.144 3.644L103.262 263s53.983-7.054 51.116-9.887c-2.868-2.835-8.765-7.207-8.765-7.207l12.447-41.262 14.94-8.027L167.975 176l-30.04 4.049-34.047 12.144" transform="translate(-239 -287) translate(154 162) translate(85 125)"/>
                    <path fill="#E0565F" d="M156 214.5c0 .143-16.79.26-37.498.26-20.715 0-37.502-.117-37.502-.26 0-.144 16.787-.26 37.502-.26 20.707 0 37.498.115 37.498.26M152 226.5c0 .143-16.79.261-37.498.261-20.715 0-37.502-.118-37.502-.261 0-.144 16.787-.261 37.502-.261 20.707 0 37.498.117 37.498.261M152 239.5c0 .144-12.76.26-28.499.26-15.742 0-28.501-.115-28.501-.26 0-.143 12.759-.26 28.501-.26 15.739 0 28.499.117 28.499.26M157 251.5c0 .144-12.76.26-28.5.26-15.742 0-28.5-.116-28.5-.26 0-.144 12.758-.26 28.5-.26 15.74 0 28.5.116 28.5.26M170 197.5c0 .143-8.508.26-19 .26-10.494 0-19-.117-19-.26 0-.144 8.506-.26 19-.26 10.492 0 19 .115 19 .26M171 185.148c.004.144-8.276.417-18.492.613-10.219.195-18.504.236-18.508.091-.005-.143 8.273-.417 18.493-.613 10.215-.195 18.503-.236 18.507-.091" transform="translate(-239 -287) translate(154 162) translate(85 125)"/>
                    <path fill="#132529" d="M98.977 220c.186.04-.774 4.55-2.143 10.072-1.367 5.523-2.627 9.968-2.811 9.928-.185-.04.774-4.549 2.143-10.073 1.368-5.522 2.626-9.967 2.811-9.927" transform="translate(-239 -287) translate(154 162) translate(85 125)"/>
                    <path fill="#B67E6D" d="M157.827 376L142 425.116 161.079 427 179 384.332 157.827 376" transform="translate(-239 -287) translate(154 162) translate(85 125)"/>
                    <path fill="#334F55" d="M171.534 407.96l-9.01 22.21s19.681 16.564 18.418 20.83L137 435.18 149.61 400l21.924 7.96" transform="translate(-239 -287) translate(154 162) translate(85 125)"/>
                    <path fill="#D4D5CF" d="M149.174 423.017c-1.019-.083-2.037.743-2.161 1.777-.125 1.034.691 2.097 1.708 2.199 1.017.101 2.27-.851 2.279-1.893.01-1.043-1.014-2.236-2.026-2.087M137 435.44l1.406-3.44 41.487 16.206s1.643 1.525.926 2.794L137 435.44" transform="translate(-239 -287) translate(154 162) translate(85 125)"/>
                    <path fill="#132529" d="M162.992 429.74c-.087.243-1.219-.091-2.553.261-1.342.314-2.242 1.154-2.413.974-.186-.13.616-1.468 2.238-1.863 1.617-.41 2.848.422 2.728.628M166.997 433.308c-.026.26-1.078.292-2.126 1.032-1.066.703-1.602 1.753-1.81 1.653-.212-.044.093-1.55 1.41-2.44 1.313-.904 2.596-.483 2.526-.245M168.09 439.998c-.203-.023-.116-1.15.82-2.081.931-.937 2.063-1.03 2.087-.829.055.212-.789.588-1.547 1.363-.774.758-1.148 1.6-1.36 1.546M164.976 424.972c-.17.178-1.11-.538-2.438-.93-1.32-.422-2.486-.35-2.535-.598-.073-.22 1.22-.726 2.778-.24 1.56.472 2.372 1.625 2.195 1.768M165.998 419.857c-.03.093-.954-.09-2.265-.841-.65-.377-1.388-.905-2.108-1.603-.36-.35-.717-.741-1.054-1.174-.16-.211-.358-.438-.492-.787-.16-.322-.088-.965.325-1.226.359-.266.823-.268 1.153-.156.337.111.584.279.809.43.46.309.872.649 1.235 1.005.723.71 1.245 1.471 1.594 2.149.698 1.364.758 2.33.666 2.345-.126.037-.387-.848-1.166-2.05-.387-.598-.92-1.263-1.61-1.89-.347-.31-.732-.609-1.156-.88-.435-.303-.842-.455-1.043-.285-.074.067-.09.096-.042.276.058.168.206.367.363.575.307.41.627.786.952 1.13.647.683 1.305 1.23 1.887 1.649 1.168.84 2 1.213 1.952 1.333" transform="translate(-239 -287) translate(154 162) translate(85 125)"/>
                    <path fill="#132529" d="M166.097 420c-.087.005-.234-.858.188-2.182.213-.657.586-1.413 1.17-2.15.293-.366.64-.726 1.04-1.058.413-.318.936-.756 1.8-.562.438.13.676.57.693.884.039.326-.026.574-.065.828-.105.509-.296.975-.533 1.387-.476.826-1.138 1.424-1.757 1.804-1.266.773-2.251.711-2.243.637-.033-.124.862-.26 1.912-1.06.518-.394 1.06-.96 1.44-1.695.188-.365.339-.772.417-1.202.101-.458.063-.87-.13-.886-.216-.076-.713.127-1.027.414-.366.292-.691.607-.972.93-.562.648-.956 1.318-1.217 1.908-.526 1.185-.588 2.011-.716 2.003" transform="translate(-239 -287) translate(154 162) translate(85 125)"/>
                    <path fill="#B67E6D" d="M217 329.002L240.653 370 260 357.621 236.249 316 217 329.002" transform="translate(-239 -287) translate(154 162) translate(85 125)"/>
                    <path fill="#334F55" d="M252.876 346l12.15 20.8s25.353-5.289 27.974-1.663L253.27 390 233 358.365 252.876 346" transform="translate(-239 -287) translate(154 162) translate(85 125)"/>
                    <path fill="#D4D5CF" d="M251.528 372.612c-.72.772-.704 2.1.05 2.84.755.737 2.134.733 2.868-.025.734-.757.766-2.355-.069-3.006-.834-.649-2.453-.56-2.98.35M253.934 390L252 386.722l39.14-22.684s2.271-.342 2.86 1.024L253.934 390" transform="translate(-239 -287) translate(154 162) translate(85 125)"/>
                    <path fill="#132529" d="M265.992 366.047c.093.217-.646.982-1.099 2.324-.48 1.326-.449 2.586-.633 2.626-.162.082-.52-1.389.051-3 .559-1.618 1.624-2.173 1.681-1.95M270.982 365.028c.111.173-.321 1.1-.42 2.434-.121 1.33.147 2.402.012 2.523-.112.159-.693-.978-.552-2.634.132-1.656.878-2.52.96-2.323M276.967 367.983c-.118.142-.808-.6-.943-1.877-.14-1.277.37-2.2.514-2.098.165.084-.016.957.108 2.003.103 1.05.463 1.841.321 1.972M263 361.13c.03.229-1.023.526-2.068 1.3-1.059.75-1.678 1.665-1.882 1.562-.2-.072.18-1.327 1.421-2.22 1.236-.901 2.528-.857 2.528-.642M259.97 356.862c.054.084-.667.719-2.082 1.311-.705.294-1.585.56-2.59.708-.503.073-1.035.116-1.59.119-.268-.003-.573.017-.933-.095-.357-.07-.822-.531-.771-1.029.013-.456.3-.835.595-1.031.3-.207.586-.301.846-.388.532-.18 1.06-.302 1.57-.374 1.017-.14 1.947-.09 2.702.051 1.52.29 2.325.844 2.281.928-.05.125-.917-.217-2.356-.337-.719-.059-1.58-.045-2.507.123-.463.088-.942.214-1.422.388-.512.163-.887.397-.876.667.005.1.018.135.19.206.17.059.421.063.686.067.517.007 1.016-.017 1.49-.065.95-.097 1.794-.29 2.49-.5 1.394-.42 2.21-.862 2.277-.75" transform="translate(-239 -287) translate(154 162) translate(85 125)"/>
                    <path fill="#132529" d="M260.265 356.993c-.053.068-.92-.357-1.829-1.498-.45-.567-.883-1.317-1.162-2.21-.135-.448-.232-.932-.268-1.44-.014-.505-.064-1.17.673-1.696.404-.247.953-.152 1.244.03.318.175.499.377.7.566.386.393.679.827.893 1.26.429.87.53 1.736.467 2.438-.135 1.429-.835 2.126-.895 2.074-.133-.052.332-.806.3-2.09-.014-.632-.167-1.391-.577-2.131-.203-.37-.47-.734-.803-1.06-.345-.363-.739-.589-.876-.454-.21.114-.354.612-.301 1.025.02.457.092.896.195 1.307.214.824.557 1.536.913 2.097.717 1.13 1.418 1.692 1.326 1.782M147.017 322.755l46.263-31.332L222.463 348 249 333.7s-30.56-74.21-41.531-76.605c-6.146-1.344-76.625 12.063-76.625 12.063l-7.875-3.943-19.936-2.414-1.274 3.21c-7.043 17.754-6.24 37.645 2.215 54.778l.97 1.966h42.073" transform="translate(-239 -287) translate(154 162) translate(85 125)"/>
                    <path fill="#132529" d="M131.523 283.671c.344 1.555 38.565 37.215 38.565 37.215l-22.054 73.84L180.95 401 214 312.045 153.588 253 126 264.57l5.523 19.101" transform="translate(-239 -287) translate(154 162) translate(85 125)"/>
                    <path fill="#334F55" d="M193 292.002c.1.146-10.117 7.205-22.817 15.761-12.705 8.56-23.082 15.38-23.182 15.235-.1-.146 10.114-7.204 22.819-15.763 12.7-8.558 23.079-15.379 23.18-15.233" transform="translate(-239 -287) translate(154 162) translate(85 125)"/>
                    <path fill="#334F55" d="M216.997 338c-.04.022-.44-.586-1.129-1.707-.696-1.116-1.655-2.76-2.825-4.798-2.325-4.085-5.424-9.789-8.704-16.158-3.286-6.371-6.162-12.186-8.193-16.419-1.016-2.116-1.823-3.835-2.364-5.03-.541-1.197-.818-1.868-.778-1.888.041-.018.395.616 1.009 1.778.653 1.265 1.511 2.93 2.55 4.94l8.36 16.326c3.279 6.365 6.31 12.095 8.527 16.232l2.641 4.894c.62 1.156.945 1.808.906 1.83M176.988 308.002c.167.085-1.484 3.732-3.684 8.146-2.201 4.413-4.122 7.929-4.292 7.85-.17-.075 1.48-3.722 3.686-8.144 2.204-4.423 4.126-7.938 4.29-7.852" transform="translate(-239 -287) translate(154 162) translate(85 125)"/>
                    <path fill="#B67E6D" d="M72.926 236l-7.428 27.695c-.962 3.581-.52 7.398 1.234 10.664 3.096 5.766 9.658 8.741 16.02 7.267L142 266.986l-6.194-12.34-46.675 4.059 4.999-19.03L72.926 236" transform="translate(-239 -287) translate(154 162) translate(85 125)"/>
                    <path fill="#334F55" d="M99 278L99.774 274.011 131.928 268.276 141.273 219.062 201 212 190.963 264.535 99 278" transform="translate(-239 -287) translate(154 162) translate(85 125)"/>
                    <path fill="#E4E4DE" d="M168.349 245.952c-1.617-.32-2.637-2.122-2.277-4.03.36-1.905 1.962-3.193 3.579-2.873 1.618.319 2.636 2.121 2.277 4.028-.359 1.906-1.962 3.193-3.58 2.875" transform="translate(-239 -287) translate(154 162) translate(85 125)"/>
                    <path fill="#B67E6D" d="M108 136.767l.11 3.592 1.328 53.774c.154 6.241 5.566 11.079 12.151 10.86 6.651-.22 11.994-5.51 11.941-11.818-.056-6.622.005-13.593.005-13.593s8.39-1.517 10.003-12.666c.802-5.545.425-14.616-.12-22.028-.492-6.672-6.352-11.588-12.9-10.806L108 136.767" transform="translate(-239 -287) translate(154 162) translate(85 125)"/>
                    <path fill="#132529" d="M139.998 151.4c.037.825-.603 1.54-1.43 1.596-.828.057-1.53-.566-1.566-1.394-.037-.826.604-1.542 1.43-1.598.828-.057 1.53.568 1.566 1.395" transform="translate(-239 -287) translate(154 162) translate(85 125)"/>
                    <path fill="#132529" d="M141.977 149.911c-.186.246-1.34-.78-2.967-.75-1.625 0-2.81 1.045-2.99.802-.087-.107.1-.547.615-1.02.509-.47 1.376-.933 2.39-.943 1.014-.008 1.87.44 2.365.902.505.464.678.9.587 1.01M124.998 151.398c.039.827-.604 1.542-1.43 1.598-.828.057-1.53-.565-1.566-1.393-.037-.828.604-1.543 1.43-1.6.828-.056 1.53.568 1.566 1.395" transform="translate(-239 -287) translate(154 162) translate(85 125)"/>
                    <path fill="#132529" d="M126.977 149.913c-.186.246-1.342-.78-2.967-.753-1.626 0-2.81 1.047-2.99.803-.087-.106.098-.547.615-1.02.508-.47 1.376-.933 2.39-.943 1.013-.008 1.87.438 2.365.903.503.464.678.9.587 1.01M132.91 160.943c-.008-.088.991-.265 2.61-.484.41-.046.8-.13.866-.4.093-.289-.084-.715-.289-1.174l-1.253-3.01c-1.74-4.283-3.006-7.808-2.827-7.874.18-.067 1.737 3.353 3.477 7.637l1.202 3.028c.16.449.435.958.233 1.555-.108.297-.407.516-.67.588-.263.08-.495.088-.697.102-1.632.102-2.644.121-2.652.032" transform="translate(-239 -287) translate(154 162) translate(85 125)"/>
                    <path fill="#AC6150" d="M134 179.061s-7.506.608-15-4.061c0 0 3.717 8.119 14.88 6.87l.12-2.809" transform="translate(-239 -287) translate(154 162) translate(85 125)"/>
                    <path fill="#132529" d="M127.99 147.367c-.17.433-1.683.15-3.482.29-1.801.105-3.268.59-3.489.183-.097-.194.173-.597.774-.995.597-.398 1.537-.757 2.616-.832 1.08-.072 2.055.158 2.693.472.647.314.96.676.888.882M140.964 144.817c-.253.41-1.26.003-2.467 0-1.206-.054-2.226.306-2.466-.117-.104-.204.052-.614.496-1.005.435-.39 1.168-.713 1.998-.694.83.02 1.553.378 1.976.79.43.41.574.826.463 1.026" transform="translate(-239 -287) translate(154 162) translate(85 125)"/>
                    <path fill="#AC6150" d="M132.342 166.949c-.463.135-.96-.028-1.426-.145-.466-.135-.905-.254-1.274-.374-.37-.12-.795-.284-1.25-.45-.445-.18-.942-.342-1.23-.724-.283-.365-.225-.998.414-1.56.612-.553 1.847-.94 3.158-.515 1.308.43 2.064 1.469 2.22 2.272.173.828-.164 1.368-.612 1.496" transform="translate(-239 -287) translate(154 162) translate(85 125)"/>
                    <path fill="#132529" d="M132.972 166.994c-.15.118-.896-1.622-2.693-2.147-1.8-.518-3.192.6-3.272.417-.053-.07.204-.463.812-.819.595-.355 1.58-.613 2.62-.314 1.04.304 1.794 1.066 2.166 1.702.384.643.442 1.129.367 1.161M120.826 129.418c3.557 5.29 2.655 13.108-2.015 17.451-2.66 2.472-6.618 4.402-6.888 8.02-.299 4.01 4.35 7.008 4.356 11.028.008 4.133-4.767 6.766-5.695 10.793-.748 3.24 1.192 6.493 3.44 8.948 2.249 2.452 4.953 4.63 6.301 7.673 1.49 3.352 1.068 7.317-.38 10.689-1.445 3.372-3.825 6.252-6.28 8.98-3.318-1.192-6.787-1.963-10.297-2.289l.66-3.977c.078 1.544-1.218 2.89-2.686 3.373-1.467.486-3.064.299-4.593.058-4.68-.735-9.292-1.92-13.749-3.53 1.903-1.903 3.84-3.853 5.025-6.268 1.184-2.416 1.502-5.422.137-7.74-1.097-1.865-3.121-3.065-4.131-4.976-1.516-2.87-.267-6.516 1.886-8.944 2.153-2.426 5.067-4.022 7.627-6.018 2.56-1.997 4.911-4.696 5.117-7.932.268-4.2-3.134-8.025-2.718-12.213.475-4.769 5.526-7.684 7.508-12.048 1.434-3.158 1.242-7.054 3.444-9.736 1.63-1.986 4.338-2.88 6.906-2.747 2.568.135 5.011 1.184 7.202 2.528M134.516 180.734c-1.957 1.106-1.844 4.145-.653 6.08 1.193 1.936 3.109 3.315 4.286 5.26 2.099 3.468 1.192 8.503-1.98 10.976l4.675 1.81 1.02-.59 2.87-1.662-1.346 3.392 2.991-.001c3.148.038 6.244-1.862 7.693-4.722 1.449-2.86 1.181-6.544-.663-9.153-1.231-1.743-3.143-3.13-3.557-5.239-.5-2.541 1.375-4.847 2.295-7.263 1.536-4.036.132-9.038-3.265-11.622" transform="translate(-239 -287) translate(154 162) translate(85 125)"/>
                    <path fill="#E0565F" d="M40.573 80.16c.545.265.92.826.92 1.477v8.151c0 .512-.238.995-.643 1.303-.405.311-.93.41-1.42.27-1.282-.364-2.723-.141-3.954.613-1.131.692-1.917 1.752-2.155 2.907-.236 1.15.064 2.448.825 3.56.815 1.192 2.058 2.026 3.332 2.229 2.603.417 5.512-1.48 6.354-4.146.272-.862 1.184-1.337 2.037-1.063.866.282 1.325 1.195 1.053 2.056-1.323 4.19-5.787 7.054-9.954 6.386-2.16-.347-4.165-1.66-5.491-3.603-1.263-1.844-1.747-4.063-1.332-6.084.42-2.042 1.75-3.879 3.65-5.041 1.37-.84 2.923-1.27 4.455-1.257v-6.282c0-.904.726-1.637 1.621-1.636.252 0 .49.058.702.16M38 76.538c-.02-.828.634-1.516 1.462-1.538.828-.02 1.516.634 1.538 1.462.02.827-.634 1.516-1.462 1.537-.828.022-1.516-.633-1.538-1.46" transform="translate(-239 -287) translate(154 162) translate(85 125)"/>
                    <path fill="#132529" d="M78.505 121.052c.005.04-.42.065-1.11.35-.68.279-1.63.896-2.34 2.027-.347.562-.633 1.248-.723 2.019-.08.767.032 1.615.423 2.394.738 1.548 2.514 2.89 4.518 2.789 2.003-.139 3.61-1.683 4.161-3.31.299-.82.311-1.674.14-2.426-.18-.756-.543-1.403-.953-1.92-.839-1.037-1.854-1.537-2.561-1.732-.718-.201-1.144-.176-1.143-.215 0-.013.105-.022.305-.025.101-.007.225-.002.371.019.148.014.315.034.5.084.742.159 1.819.639 2.724 1.705.444.532.843 1.207 1.048 2.012.197.8.194 1.728-.116 2.609-.291.882-.85 1.725-1.621 2.374-.758.66-1.758 1.111-2.833 1.189-1.075.05-2.122-.278-2.952-.843-.84-.552-1.495-1.322-1.887-2.165-.413-.836-.522-1.757-.42-2.576.108-.823.426-1.54.804-2.121.775-1.169 1.787-1.773 2.505-2.02.177-.071.343-.112.488-.143.142-.038.264-.057.365-.063.2-.02.305-.025.307-.012" transform="translate(-239 -287) translate(154 162) translate(85 125)"/>
                    <g transform="translate(-239 -287) translate(154 162) translate(85 125) translate(0 54)">
                        <mask id="ezeh9m8slb" fill="#fff">
                            <use xlink:href="#kgcbnraeba"/>
                        </mask>
                        <path fill="#132529" d="M90.517 78.445c.005.034-.257.059-.675.24-.413.18-.989.562-1.416 1.251-.428.67-.657 1.715-.17 2.667.45.935 1.528 1.741 2.732 1.682 1.204-.083 2.18-1.014 2.516-1.995.374-1.004.022-2.015-.481-2.628-.505-.635-1.12-.946-1.552-1.075-.437-.13-.7-.123-.7-.157-.002-.015.264-.07.734.023.463.092 1.14.385 1.71 1.047.28.33.534.751.665 1.257.126.503.127 1.087-.067 1.64-.36 1.099-1.42 2.143-2.804 2.244-1.385.065-2.56-.846-3.046-1.893-.259-.527-.327-1.108-.26-1.623.07-.516.274-.965.512-1.326.49-.727 1.127-1.097 1.576-1.243.456-.15.726-.126.726-.11M76.485 41.682s-.006-.212 0-.624c.006-.423.017-1.035.031-1.834.009-.402.019-.852.028-1.348-.012-.496-.074-1.037-.113-1.624-.046-.587-.094-1.22-.148-1.894-.012-.339-.065-.684-.137-1.039-.063-.354-.127-.72-.195-1.096-.437-3.022-1.54-6.64-3.423-10.531-1.902-3.878-4.763-8-8.815-11.625l-1.547-1.364c-.547-.426-1.127-.824-1.7-1.244l-.866-.627c-.29-.213-.58-.427-.9-.598-.627-.365-1.26-.735-1.898-1.11-.32-.184-.638-.378-.966-.556l-1.023-.47-2.075-.954c-.708-.299-1.455-.516-2.19-.78-.37-.127-.742-.256-1.115-.383-.187-.062-.371-.134-.563-.187l-.579-.135c-1.552-.35-3.113-.8-4.757-.939C42.718.628 41.9.48 41.068.428L38.546.361c-.423-.004-.848-.04-1.274-.017L35.991.44c-.856.073-1.722.106-2.585.215-1.71.328-3.473.534-5.176 1.098l-1.295.366c-.217.064-.436.118-.65.19l-.63.247c-.844.33-1.691.664-2.545.999-.834.375-1.643.825-2.472 1.236-.408.22-.84.401-1.232.654l-1.181.756c-1.625.944-3.077 2.172-4.59 3.346l-2.094 1.988-.528.501c-.165.177-.32.364-.48.546l-.96 1.104-.963 1.107-.861 1.198-.862 1.206-.432.605c-.131.21-.25.429-.376.643l-1.497 2.595c-.414.912-.83 1.83-1.249 2.75C1.8 27.53.818 31.553.442 35.697c-.268 4.153.081 8.282 1.021 12.219l.81 2.912 1.08 2.798.272.696.334.664.664 1.326.667 1.32.782 1.244.778 1.24.39.616.443.577 1.764 2.292c1.314 1.396 2.56 2.837 4.02 4.025l1.052.93c.348.312.746.56 1.115.84.757.536 1.485 1.106 2.253 1.607l2.36 1.385.585.344c.2.104.41.19.612.288.41.188.818.376 1.224.565 1.596.822 3.306 1.302 4.945 1.893.836.243 1.687.41 2.521.617l1.25.297c.418.088.844.118 1.262.181l2.503.327c.83.079 1.66.062 2.48.099 1.647.12 3.259-.083 4.844-.185l.594-.044c.198-.022.39-.064.585-.097l1.16-.203c.768-.148 1.539-.243 2.283-.429l2.198-.618c.363-.1.724-.202 1.084-.303l1.039-.401c.688-.27 1.37-.535 2.045-.799.343-.12.663-.285.981-.45l.954-.485c.63-.326 1.265-.627 1.87-.963l1.738-1.105c4.561-2.95 8.02-6.574 10.497-10.106.311-.442.63-.868.924-1.3.26-.452.519-.895.771-1.33l.742-1.28c.118-.211.25-.412.354-.625l.292-.64 1.107-2.42c.33-.78.55-1.558.811-2.274l.362-1.053c.124-.34.23-.672.295-1.005l.437-1.847c.13-.573.273-1.098.362-1.587l.18-1.336c.11-.791.192-1.397.25-1.815.059-.408.097-.618.097-.618s-.015.21-.06.622l-.217 1.821-.162 1.342c-.083.49-.223 1.017-.348 1.593l-.421 1.859c-.063.334-.166.668-.288 1.01-.116.342-.234.695-.355 1.057-.257.722-.474 1.505-.8 2.289l-1.098 2.438-.29.644c-.104.214-.234.418-.352.63l-.74 1.29-.77 1.34c-.292.434-.61.864-.921 1.31-2.474 3.561-5.94 7.22-10.523 10.203l-1.746 1.117c-.61.34-1.248.646-1.88.976l-.96.49c-.32.167-.641.335-.986.456l-2.058.81c-.348.133-.694.278-1.047.405-.361.104-.725.207-1.09.31l-2.212.626c-.75.188-1.526.288-2.3.438-.388.068-.777.138-1.168.208-.197.032-.392.076-.59.098l-.598.045c-1.599.106-3.223.313-4.882.196-.826-.035-1.663-.018-2.5-.095l-2.524-.325c-.421-.062-.85-.094-1.271-.182l-1.262-.296c-.842-.208-1.7-.375-2.543-.62-1.654-.592-3.379-1.075-4.99-1.902l-1.235-.569c-.205-.096-.415-.184-.617-.289l-.591-.345-2.382-1.395c-.774-.504-1.512-1.078-2.275-1.619-.373-.283-.774-.532-1.125-.846l-1.063-.937c-1.474-1.198-2.733-2.65-4.059-4.058l-1.781-2.311-.448-.582-.394-.621-1.576-2.508-.673-1.328-1.01-2.01-.274-.701-1.09-2.824-.82-2.94C.17 44.028-.181 39.861.089 35.67c.38-4.182 1.37-8.243 2.921-12.017.42-.928.843-1.854 1.262-2.775.504-.877 1.01-1.749 1.511-2.619.128-.216.248-.436.38-.65L6.599 17l.868-1.216.87-1.21.974-1.116.968-1.113c.162-.183.32-.371.486-.55l.531-.504 2.115-2.006c1.526-1.184 2.993-2.42 4.633-3.373l1.194-.761c.396-.254.831-.438 1.243-.658.837-.415 1.652-.868 2.496-1.244l2.566-1.006.638-.248c.216-.071.437-.126.655-.19l1.306-.368c1.72-.566 3.496-.773 5.222-1.1.87-.11 1.745-.14 2.608-.214l1.292-.095c.429-.022.857.014 1.285.019l2.54.072c.84.055 1.664.202 2.486.298 1.656.143 3.228.6 4.792.955l.585.138c.19.054.377.127.566.19l1.122.387c.74.27 1.493.489 2.204.792.704.324 1.4.647 2.09.964l1.03.477c.328.18.649.377.97.564.642.378 1.278.752 1.909 1.12.321.175.613.39.905.606l.872.635c.575.424 1.158.826 1.707 1.257l1.552 1.376c4.07 3.662 6.931 7.819 8.826 11.725 1.877 3.921 2.964 7.56 3.383 10.597l.187 1.102c.07.355.12.701.13 1.043.047.677.091 1.31.13 1.9.035.589.092 1.13.099 1.628-.018.498-.033.949-.046 1.353l-.067 1.833c-.017.414-.036.623-.036.623" mask="url(#ezeh9m8slb)"/>
                    </g>
                    <path fill="#132529" d="M495.5 406c.01-.008-.062-.179-.214-.508l-.689-1.451c-.585-1.283-1.344-3.225-2.022-5.81-1.34-5.167-1.806-13.061.172-22.44.92-4.696 2.4-9.732 4.209-15.071 1.781-5.35 3.85-11.025 5.54-17.161 1.67-6.12 2.99-12.764 2.735-19.728-.256-6.98-2.345-13.945-4.643-20.88-2.293-6.944-4.665-13.733-5.375-20.56-.804-6.817.671-13.508 3.813-18.99 3.04-5.541 6.868-10.28 9.73-15.19 2.908-4.891 4.727-9.924 5.849-14.6 2.173-9.434 1.412-17.383.37-22.622-1.128-5.267-2.386-7.989-2.386-7.989-.012.005.036.185.141.532.12.378.28.884.483 1.531.42 1.346.966 3.356 1.483 5.98.953 5.227 1.624 13.122-.592 22.45-1.144 4.628-2.971 9.592-5.868 14.418-2.859 4.85-6.7 9.569-9.802 15.174-3.205 5.544-4.748 12.453-3.93 19.376.714 6.943 3.103 13.778 5.39 20.715 2.298 6.926 4.363 13.82 4.624 20.681.26 6.858-1.025 13.439-2.67 19.53-1.662 6.105-3.707 11.781-5.466 17.146-1.787 5.355-3.25 10.433-4.14 15.16-1.926 9.448-1.378 17.423.057 22.607.726 2.595 1.534 4.533 2.164 5.801l.757 1.425c.174.319.268.48.28.474" transform="translate(-239 -287) translate(154 162) translate(85 125)"/>
                    <path fill="#E0565F" d="M505.314 253s6.067-18.164-4.817-28.8c-.382-.374-1.055-.196-1.153.312-.582 2.999-1.308 12.137 5.97 28.488" transform="translate(-239 -287) translate(154 162) translate(85 125)"/>
                    <path fill="#132529" d="M501.03 230c-.106.02.073 1.315.42 3.399l1.427 8.12 1.398 8.12c.343 2.08.548 3.368.662 3.361.101-.006.092-1.318-.112-3.422-.207-2.105-.61-4.998-1.177-8.175-.562-3.177-1.164-6.038-1.652-8.099-.489-2.06-.86-3.322-.965-3.304" transform="translate(-239 -287) translate(154 162) translate(85 125)"/>
                    <path fill="#E0565F" d="M499 296s-3.608-19.207-18.13-23.965c-.509-.167-1.001.296-.838.803.957 2.981 4.771 11.597 18.968 23.162" transform="translate(-239 -287) translate(154 162) translate(85 125)"/>
                    <path fill="#132529" d="M484.006 277.003c-.079.064.675 1.153 1.936 2.874 1.436 1.927 3.118 4.188 4.978 6.687 1.853 2.503 3.527 4.768 4.955 6.698 1.257 1.722 2.029 2.794 2.118 2.736.079-.05-.544-1.226-1.697-3.033-1.157-1.802-2.846-4.232-4.798-6.845-1.952-2.612-3.787-4.924-5.155-6.565-1.365-1.642-2.261-2.615-2.337-2.552" transform="translate(-239 -287) translate(154 162) translate(85 125)"/>
                    <path fill="#E0565F" d="M501.858 344s2.099-19.238-9.864-27.878c-.418-.304-1-.005-.994.52.038 3.101 1.108 12.354 10.858 27.358" transform="translate(-239 -287) translate(154 162) translate(85 125)"/>
                    <path fill="#132529" d="M494.013 322c-.093.038.317 1.284 1.035 3.277l2.856 7.76c1.057 2.902 2.016 5.527 2.831 7.764.71 1.991 1.145 3.227 1.247 3.199.091-.025-.17-1.316-.759-3.357-.591-2.038-1.514-4.823-2.637-7.857-1.124-3.034-2.221-5.75-3.061-7.696-.839-1.948-1.42-3.127-1.512-3.09" transform="translate(-239 -287) translate(154 162) translate(85 125)"/>
                    <path fill="#E0565F" d="M490.949 392s1.44-19.576-10.96-27.891c-.437-.29-1.013.034-.988.567.148 3.14 1.557 12.48 11.948 27.324" transform="translate(-239 -287) translate(154 162) translate(85 125)"/>
                    <g transform="translate(-239 -287) translate(154 162) translate(85 125) translate(482 211)">
                        <mask id="hdha2k584d" fill="#fff">
                            <use xlink:href="#vy9uen56pc"/>
                        </mask>
                        <path fill="#132529" d="M.57 158.56c-.09.04.365 1.263 1.154 3.217.903 2.193 1.965 4.765 3.137 7.608l3.112 7.614c.782 1.953 1.26 3.165 1.363 3.133.089-.027-.219-1.302-.88-3.307-.666-2.005-1.688-4.739-2.923-7.714-1.233-2.974-2.428-5.632-3.338-7.538C1.284 159.67.661 158.52.57 158.56" mask="url(#hdha2k584d)"/>
                        <path fill="#E0565F" d="M31.246 25.313S48.472 16.39 48.811 1.478c.013-.523-.57-.85-1.005-.552-2.56 1.756-9.653 7.805-16.56 24.387" mask="url(#hdha2k584d)"/>
                    </g>
                    <path fill="#132529" d="M526.993 218.002c-.086-.056-.9.986-2.17 2.702l-4.908 6.737-4.925 6.72c-1.272 1.712-2.065 2.767-1.984 2.836.073.063 1.009-.88 2.392-2.517 1.38-1.637 3.199-3.97 5.113-6.611 1.915-2.64 3.579-5.08 4.74-6.873 1.162-1.792 1.825-2.939 1.742-2.994" transform="translate(-239 -287) translate(154 162) translate(85 125)"/>
                    <path fill="#E0565F" d="M495 276s17.746-7.721 18.998-22.31c.042-.512-.518-.865-.97-.6-2.665 1.569-10.118 7.076-18.028 22.91" transform="translate(-239 -287) translate(154 162) translate(85 125)"/>
                    <path fill="#132529" d="M509.994 258.003c-.08-.061-.95.924-2.31 2.55l-5.265 6.384-5.28 6.368c-1.362 1.62-2.21 2.617-2.134 2.692.067.066 1.052-.813 2.52-2.353 1.463-1.541 3.404-3.743 5.459-6.247 2.055-2.502 3.848-4.82 5.105-6.53 1.259-1.708 1.985-2.803 1.905-2.864" transform="translate(-239 -287) translate(154 162) translate(85 125)"/>
                    <path fill="#E0565F" d="M505.024 320s12.155-14.905 6.455-28.6c-.201-.479-.863-.545-1.142-.104-1.634 2.606-5.683 10.904-5.313 28.704" transform="translate(-239 -287) translate(154 162) translate(85 125)"/>
                    <path fill="#132529" d="M509.97 298c-.096-.019-.41 1.264-.863 3.344l-1.708 8.136-1.733 8.128c-.457 2.077-.746 3.36-.646 3.392.086.028.546-1.21 1.13-3.262.58-2.052 1.278-4.916 1.939-8.103.663-3.186 1.182-6.085 1.51-8.193.327-2.11.467-3.424.372-3.442" transform="translate(-239 -287) translate(154 162) translate(85 125)"/>
                    <path fill="#E0565F" d="M493 372s17.978-8.252 18.998-23.3c.036-.528-.543-.882-1-.601-2.691 1.66-10.204 7.458-17.998 23.901" transform="translate(-239 -287) translate(154 162) translate(85 125)"/>
                    <path fill="#132529" d="M507.994 354.002c-.085-.057-.954.928-2.315 2.553l-5.262 6.386c-1.974 2.378-3.758 4.53-5.28 6.366-1.361 1.618-2.21 2.617-2.132 2.69.07.064 1.06-.82 2.532-2.362 1.466-1.544 3.41-3.75 5.463-6.252 2.054-2.502 3.844-4.818 5.098-6.523 1.255-1.705 1.978-2.799 1.896-2.858M458.021 297c-.016.001-.022.146-.021.424.008.335.017.739.03 1.228.051 1.154.12 2.713.204 4.658.224 4.094.534 9.803.904 16.633l.001.015.004.023c1.234 6.95 4.747 14.654 9.467 22.135 3.462 5.51 7.09 10.519 10.22 15.178 3.15 4.645 5.808 8.948 7.662 12.76 1.866 3.808 2.95 7.08 3.586 9.366.303 1.147.531 2.043.663 2.655.142.61.227.929.252.925.024-.005-.015-.332-.112-.954-.086-.624-.27-1.53-.534-2.696-.556-2.32-1.577-5.648-3.4-9.515-1.81-3.875-4.446-8.235-7.573-12.912-3.107-4.691-6.717-9.708-10.16-15.19-4.696-7.443-8.191-15.03-9.469-21.87l.004.041-1.159-16.618-.373-4.645-.121-1.223c-.035-.276-.058-.418-.075-.418" transform="translate(-239 -287) translate(154 162) translate(85 125)"/>
                    <path fill="#E0565F" d="M468.93 340s-7.774-17.975 2.005-29.751c.344-.413 1.028-.292 1.174.218.867 3.004 2.468 12.247-3.179 29.533" transform="translate(-239 -287) translate(154 162) translate(85 125)"/>
                    <path fill="#132529" d="M469.94 317c-.113-.011-.37 1.264-.666 3.338-.297 2.071-.63 4.94-.891 8.12-.262 3.18-.384 6.067-.383 8.159.004 2.092.128 3.384.235 3.383.12-.001.201-1.29.344-3.367.178-2.342.388-5.089.622-8.124l.649-8.124c.149-2.083.202-3.374.09-3.385" transform="translate(-239 -287) translate(154 162) translate(85 125)"/>
                    <path fill="#A93B44" d="M468.93 340s-.034-.079-.095-.23c.078-.429.147-1.592.25-3.247.165-2.386.36-5.185.576-8.279.224-3.094.429-5.894.6-8.279.139-2.122.188-3.437.084-3.449h-.001c-.106 0-.343 1.297-.615 3.402-.275 2.11-.583 5.035-.825 8.275-.243 3.24-.356 6.182-.355 8.314.003 1.222.04 2.176.091 2.767-.738-1.95-2.643-7.6-2.64-14.018.003-4.999 1.163-10.464 4.934-15.007.141-.169.34-.249.533-.249.282 0 .556.167.642.467.376 1.306.891 3.79.891 7.6-.001 4.957-.877 12.16-4.07 21.933" transform="translate(-239 -287) translate(154 162) translate(85 125)"/>
                    <path fill="#051317" d="M468.308 340c-.052-.119-.124-.284-.21-.492-.054-.584-.095-1.528-.098-2.736-.001-2.109.121-5.019.383-8.223.262-3.205.594-6.097.89-8.185.295-2.081.551-3.364.665-3.364h.002c.112.011.059 1.313-.09 3.411-.186 2.36-.407 5.128-.65 8.189l-.621 8.188c-.112 1.637-.186 2.787-.27 3.212" transform="translate(-239 -287) translate(154 162) translate(85 125)"/>
                    <path fill="#E0565F" d="M491.604 383s-5.56-18.081 4.024-28.796c.336-.376.936-.206 1.028.3.544 2.99 1.272 12.105-5.052 28.496" transform="translate(-239 -287) translate(154 162) translate(85 125)"/>
                    <path fill="#132529" d="M494.974 360c-.084-.02-.369 1.244-.74 3.307-.372 2.062-.828 4.924-1.25 8.1-.424 3.178-.72 6.072-.867 8.174-.145 2.103-.143 3.413-.062 3.419.09.006.244-1.284.499-3.362l1.046-8.122 1.068-8.12c.26-2.082.391-3.377.306-3.396" transform="translate(-239 -287) translate(154 162) translate(85 125)"/>
                    <path fill="#A93B44" d="M491.605 383s-.025-.08-.068-.231c.101-.413.25-1.54.466-3.141l1.137-8.011c.432-2.994.825-5.703 1.159-8.01.281-2.054.424-3.331.332-3.35h-.002c-.094 0-.401 1.244-.801 3.263-.405 2.033-.899 4.857-1.357 7.989-.46 3.135-.783 5.989-.942 8.063-.09 1.189-.128 2.121-.127 2.7-.43-1.648-1.402-5.927-1.402-10.978 0-5.593 1.192-12.13 5.628-17.09.124-.14.285-.204.443-.204.269 0 .527.186.585.505.164.9.344 2.352.344 4.391 0 4.74-.974 12.644-5.395 24.104" transform="translate(-239 -287) translate(154 162) translate(85 125)"/>
                    <path fill="#051317" d="M492.124 383c-.03-.122-.074-.293-.124-.507-.001-.592.034-1.545.117-2.76.147-2.119.443-5.034.867-8.237.422-3.2.878-6.085 1.25-8.163.369-2.063.652-3.333.738-3.333h.002c.085.019-.047 1.324-.306 3.421-.307 2.358-.67 5.126-1.068 8.185l-1.046 8.185c-.2 1.636-.337 2.787-.43 3.209" transform="translate(-239 -287) translate(154 162) translate(85 125)"/>
                    <path fill="#E0565F" d="M459 319s-15.448-11.277-13.89-26.407c.055-.531.655-.784 1.036-.426 2.242 2.11 8.304 9.157 12.854 26.833" transform="translate(-239 -287) translate(154 162) translate(85 125)"/>
                    <path fill="#A93B44" d="M459 319s-9.706-7.084-12.954-17.557c-.013-.037-.023-.075-.034-.112-.635-2.075-1.013-4.282-1.012-6.593 0-.706.036-1.42.11-2.145.038-.36.327-.593.626-.593.143 0 .288.052.41.167 2.242 2.11 8.304 9.157 12.854 26.833" transform="translate(-239 -287) translate(154 162) translate(85 125)"/>
                    <path fill="#132529" d="M448.01 298.001c-.087.044.403 1.228 1.288 3.095.885 1.869 2.169 4.42 3.667 7.195 1.5 2.777 2.945 5.244 4.057 6.99 1.115 1.745 1.894 2.767 1.97 2.717.087-.057-.538-1.17-1.539-2.972l-3.865-7.072-3.844-7.086c-.999-1.807-1.647-2.91-1.734-2.867" transform="translate(-239 -287) translate(154 162) translate(85 125)"/>
                    <path fill="#E0565F" d="M485 365s-18.898-2.993-23.96-17.127c-.177-.495.26-.993.76-.847 2.947.855 11.485 4.355 23.2 17.974" transform="translate(-239 -287) translate(154 162) translate(85 125)"/>
                    <path fill="#A93B44" d="M485 365l-.073-.011c-.118-.02-.375-.066-.748-.144-3.683-.766-18.707-4.603-23.138-16.971-.027-.077-.04-.153-.041-.228 0-.349.28-.646.625-.646.056 0 .117.009.176.026 2.946.855 11.484 4.355 23.199 17.974" transform="translate(-239 -287) translate(154 162) translate(85 125)"/>
                    <path fill="#132529" d="M466.003 352.006c-.06.078.918.915 2.564 2.19s3.962 2.982 6.575 4.795c2.614 1.816 5.04 3.38 6.84 4.446 1.8 1.065 2.968 1.635 3.016 1.556.053-.088-1.016-.805-2.74-1.969-1.928-1.327-4.193-2.883-6.698-4.602l-6.688-4.622c-1.723-1.171-2.809-1.87-2.87-1.794" transform="translate(-239 -287) translate(154 162) translate(85 125)"/>
                    <path fill="#334F55" d="M508 400L502.479 436 480.428 435.963 473 400 508 400" transform="translate(-239 -287) translate(154 162) translate(85 125)"/>
                    <path fill="#132529" d="M487.589 411.633c.56-.87.954-1.922 1.016-3.077.082-1.127-.35-2.496-1.489-3.164-1.133-.669-2.597-.427-3.676.31-1.127.747-1.787 2.056-2.102 3.379-.316 1.344-.35 2.743-.272 4.157.088 1.413.344 2.865.889 4.25.531 1.384 1.386 2.694 2.544 3.704 1.15 1.006 2.628 1.727 4.222 1.802 1.596.072 3.119-.49 4.393-1.302 1.281-.822 2.368-1.861 3.277-3.025.898-1.164 1.575-2.555 1.66-4.043.069-1.46-.435-2.98-1.557-3.898-1.139-.945-2.752-.876-3.89-.242-1.17.602-2.039 1.745-2.242 2.998-.423 2.526 1.02 4.803 2.774 5.827 1.796 1.046 3.748 1.077 5.297.782 1.574-.312 2.816-.945 3.776-1.51.959-.573 1.65-1.1 2.112-1.46.46-.365.69-.573.679-.59-.014-.017-.269.159-.75.49-.482.327-1.192.817-2.156 1.352-.964.525-2.198 1.11-3.72 1.379-1.501.256-3.365.183-5.022-.818-1.61-.958-2.908-3.114-2.501-5.352.188-1.1.954-2.087 1.994-2.617 1.02-.553 2.37-.58 3.303.205.94.768 1.4 2.117 1.328 3.424-.078 1.316-.694 2.602-1.548 3.701-.865 1.102-1.922 2.106-3.13 2.878-1.205.765-2.61 1.273-4.048 1.207-1.434-.067-2.791-.72-3.862-1.653-1.078-.938-1.878-2.152-2.386-3.464-.52-1.31-.772-2.698-.863-4.063-.082-1.367-.05-2.732.238-3.986.287-1.242.886-2.414 1.857-3.063.95-.66 2.215-.856 3.134-.316.938.539 1.33 1.665 1.273 2.702-.045 1.048-.396 2.045-.908 2.86-1.08 1.622-2.648 2.62-4.091 3.13-1.457.523-2.82.588-3.9.474-2.183-.253-3.212-1.073-3.242-.984-.005.01.058.055.185.138.128.075.313.207.576.336.525.262 1.344.59 2.454.747 1.105.154 2.513.125 4.035-.386 1.51-.501 3.16-1.498 4.339-3.219" transform="translate(-239 -287) translate(154 162) translate(85 125)"/>
                </g>
            </g>
        </g>
    </g>
</svg>
