<svg xmlns="http://www.w3.org/2000/svg" width="25" height="24" viewBox="0 0 25 24">
    <g fill="none" fill-rule="evenodd" stroke-linecap="round" stroke-linejoin="round">
        <g stroke="#200E32" stroke-width="1.5">
            <g>
                <g>
                    <g>
                        <g>
                            <g>
                                <path d="M14.335.75h-8.67C2.646.75.752 2.89.752 5.916v8.168c0 3.027 1.884 5.166 4.915 5.166h8.668c3.03 0 4.917-2.139 4.917-5.166V5.916C19.25 2.89 17.365.75 14.335.75z" transform="translate(-850 -451) translate(831 72) translate(0 181) translate(0 180) translate(19 18) translate(2 2)"/>
                                <path d="M13.391 12.018L10 9.995 10 5.634" transform="translate(-850 -451) translate(831 72) translate(0 181) translate(0 180) translate(19 18) translate(2 2)"/>
                            </g>
                        </g>
                    </g>
                </g>
            </g>
        </g>
    </g>
</svg>
