<svg xmlns="http://www.w3.org/2000/svg" width="24" height="24" viewBox="0 0 24 24">
    <g fill="none" fill-rule="evenodd" stroke-linecap="round" stroke-linejoin="round">
        <g stroke="#200E32" stroke-width="1.5">
            <g>
                <g>
                    <g>
                        <g>
                            <g transform="translate(-93 -186) translate(47 45) translate(28 123) translate(12 12) translate(6 6) translate(4 2.5)">
                                <circle cx="7.579" cy="4.778" r="4.778"/>
                                <path d="M0 16.201c-.001-.336.074-.667.22-.97.457-.915 1.748-1.4 2.819-1.62.772-.165 1.555-.275 2.343-.33 1.459-.128 2.926-.128 4.385 0 .787.056 1.57.166 2.343.33 1.07.22 2.361.659 2.82 1.62.292.617.292 1.333 0 1.95-.459.96-1.75 1.4-2.82 1.61-.772.172-1.555.286-2.343.34-1.188.1-2.38.118-3.57.054-.275 0-.54 0-.815-.055-.785-.053-1.566-.166-2.334-.338-1.08-.21-2.361-.65-2.828-1.611-.145-.306-.22-.64-.22-.98z"/>
                            </g>
                        </g>
                    </g>
                </g>
            </g>
        </g>
    </g>
</svg>
