<svg xmlns="http://www.w3.org/2000/svg" width="24" height="24" viewBox="0 0 24 24">
    <defs>
        <filter id="d34t1p0q2a">
            <feColorMatrix in="SourceGraphic" values="0 0 0 0 0.192157 0 0 0 0 0.243137 0 0 0 0 0.364706 0 0 0 1.000000 0"/>
        </filter>
    </defs>
    <g fill="none" fill-rule="evenodd" stroke-linecap="round" stroke-linejoin="round">
        <g>
            <g>
                <g>
                    <g>
                        <g filter="url(#d34t1p0q2a)" transform="translate(-65 -648) translate(47 45) translate(0 215) translate(0 370) translate(18 18)">
                            <g stroke="#200E32" stroke-width="1.5">
                                <path d="M16.595 7.432c1.602 0 2.902-1.299 2.902-2.901 0-1.603-1.3-2.902-2.902-2.902M17.93 10.585c.478.033.953.1 1.422.206.65.127 1.433.394 1.712.978.178.374.178.81 0 1.184-.278.584-1.061.85-1.712.984M5.29 7.432c-1.602 0-2.902-1.299-2.902-2.901 0-1.603 1.3-2.902 2.902-2.902M3.956 10.585c-.479.033-.954.1-1.423.206-.65.127-1.434.394-1.711.978-.179.374-.179.81 0 1.184.277.584 1.06.85 1.711.984M10.938 11.21c3.247 0 6.02.49 6.02 2.457 0 1.965-2.755 2.475-6.02 2.475-3.248 0-6.02-.491-6.02-2.457 0-1.967 2.755-2.475 6.02-2.475zM10.938 8.405c-2.142 0-3.858-1.717-3.858-3.86 0-2.14 1.716-3.857 3.858-3.857 2.141 0 3.858 1.716 3.858 3.858 0 2.142-1.717 3.859-3.858 3.859z" transform="translate(1 3.5)"/>
                            </g>
                        </g>
                    </g>
                </g>
            </g>
        </g>
    </g>
</svg>
